<?xml version="1.0" encoding="utf-8"?>
<!-- Generator: Adobe Illustrator 16.0.0, SVG Export Plug-In . SVG Version: 6.00 Build 0)  -->
<!DOCTYPE svg PUBLIC "-//W3C//DTD SVG 1.1//EN" "http://www.w3.org/Graphics/SVG/1.1/DTD/svg11.dtd">
<svg version="1.1" id="Layer_1" xmlns="http://www.w3.org/2000/svg" xmlns:xlink="http://www.w3.org/1999/xlink" x="0px" y="0px"
	 width="300px" height="300px" viewBox="0 0 300 300" enable-background="new 0 0 300 300" xml:space="preserve">
<path fill-rule="evenodd" clip-rule="evenodd" fill="#D1D3D4" d="M243.464,139.458c-0.002,42.02,0.019,84.04-0.012,126.057
	c-0.011,13.51-8.583,25.582-20.936,29.309c-2.786,0.842-5.83,1.154-8.757,1.158c-42.129,0.072-84.259-0.18-126.385,0.164
	c-16.407,0.131-29.084-13.652-29.881-29.113c-0.045-0.877-0.022-1.76-0.022-2.639c0-83.817-0.001-167.636,0-251.454
	c0-0.99-0.059-1.989,0.048-2.968c0.406-3.684,2.652-6.053,5.723-6.119c3.15-0.067,5.556,2.446,5.917,6.265
	c0.103,1.09,0.038,2.198,0.038,3.298c0.002,70.949,0.001,141.897,0.003,212.846c0,1.316-0.051,2.645,0.06,3.957
	c0.384,4.541,2.701,6.705,7.187,6.705c49.279,0.006,98.559,0.006,147.837,0.002c4.731,0,7.041-2.135,7.396-6.838
	c0.1-1.314,0.049-2.639,0.049-3.959c0.002-71.059-0.002-142.117,0.025-213.175c0.001-1.737,0.195-3.512,0.591-5.2
	c0.615-2.618,2.729-3.793,5.145-3.825c2.563-0.033,4.739,1.17,5.388,3.937c0.372,1.583,0.559,3.247,0.561,4.874
	C243.47,54.981,243.464,97.221,243.464,139.458z M150.72,250.387c-9.025-0.178-16.871,6.4-17.329,16.938
	c-0.39,8.99,7.593,16.822,16.658,16.967c9.517,0.148,17.688-7.363,17.474-16.791C167.291,257.252,159.745,250.48,150.72,250.387z"/>
<g>
	<path fill-rule="evenodd" clip-rule="evenodd" fill="#F7941E" d="M201.994,145.086c7.437,1.158,14.77,2.235,22.064,3.524
		c0.808,0.142,1.459,1.45,2.06,2.305c0.207,0.296,0.038,0.856,0.038,1.296c0.001,24.744-0.051,49.488,0.068,74.232
		c0.015,2.963-0.9,3.689-3.735,3.686c-48.058-0.074-96.116-0.072-144.174-0.006c-2.645,0.002-3.604-0.645-3.597-3.48
		c0.091-35.631,0.076-71.263,0.017-106.894c-0.004-2.012,0.481-3.371,2.394-4.123c4.13-1.623,8.248-3.275,12.44-4.943
		c2.618,9.059,7.07,13.123,14.14,13.503c6.828,0.368,11.778-3.272,14.973-11.009c7.247,0.881,38.837,13.069,51.4,19.887
		c-2.615,5.703-2.973,11.479,0.693,17.014c2.313,3.497,5.289,6.096,9.404,7.317C189.594,160.188,196.752,156.091,201.994,145.086z
		 M88.874,190.166c0.068,9.178,8.049,17.119,17.036,16.953c9.144-0.17,17.012-8.141,16.955-17.178
		c-0.058-9.09-8.001-16.854-17.201-16.814C96.323,173.167,88.804,180.801,88.874,190.166z M210.748,210.588
		c-0.013-8.084-6.326-14.369-14.424-14.359c-7.94,0.012-14.446,6.578-14.376,14.514c0.066,7.625,6.746,14.264,14.365,14.279
		C204.253,225.039,210.76,218.531,210.748,210.588z M150.23,175.971c-0.007,8.089,6.436,14.555,14.397,14.447
		c7.817-0.107,14.205-6.5,14.327-14.336c0.121-7.838-6.593-14.492-14.541-14.418C156.54,161.737,150.237,168.097,150.23,175.971z
		 M120.522,144.038c-0.01,6.401,5.095,11.621,11.351,11.607c6.176-0.015,11.529-5.46,11.468-11.669
		c-0.062-6.329-5.318-11.427-11.689-11.337C125.352,132.727,120.532,137.663,120.522,144.038z M144.465,196.193
		c-6.62-0.01-11.414,4.752-11.4,11.324c0.013,6.256,5.34,11.58,11.497,11.494c6.003-0.086,11.253-5.355,11.377-11.418
		C156.067,201.211,151.027,196.203,144.465,196.193z"/>
	<path fill-rule="evenodd" clip-rule="evenodd" fill="#F7941E" d="M143.297,92.573c0.027-8.924,7.231-16.083,16.149-16.046
		c8.937,0.038,15.825,7.185,15.947,16.233c0.112,8.268-6.423,16.158-16.134,16.022C149.42,108.645,142.993,100.887,143.297,92.573z"
		/>
	<path fill-rule="evenodd" clip-rule="evenodd" fill="#F7941E" d="M143.026,67.313c0.011,7.705-5.797,13.508-13.516,13.508
		c-7.374,0-13.783-5.929-13.599-13.274c0.206-8.194,6.197-13.73,13.544-13.623C137.353,54.04,143.017,59.506,143.026,67.313z"/>
	<path fill-rule="evenodd" clip-rule="evenodd" fill="#F7941E" d="M185.467,152.759c-6.888-0.007-12.33-5.39-12.332-12.203
		c0-6.581,5.844-12.44,12.371-12.398c6.701,0.041,12.313,5.72,12.3,12.445C197.79,147.569,192.518,152.764,185.467,152.759z"/>
	<path fill-rule="evenodd" clip-rule="evenodd" fill="#F7941E" d="M174.961,51.447c0.047-5.741,4.725-10.459,10.464-10.552
		c5.492-0.089,10.94,5.28,10.889,10.732c-0.053,5.719-5.128,10.661-10.896,10.61C179.438,62.185,174.914,57.515,174.961,51.447z"/>
	<path fill-rule="evenodd" clip-rule="evenodd" fill="#F7941E" d="M95.105,109.828c0.055-5.41,3.931-9.086,9.514-9.022
		c5.05,0.057,9.277,4.207,9.299,9.129c0.022,4.942-4.465,9.554-9.385,9.646C99.333,119.677,95.05,115.246,95.105,109.828z"/>
</g>
</svg>
