<?xml version="1.0" encoding="utf-8"?>
<!-- Generator: Adobe Illustrator 16.0.0, SVG Export Plug-In . SVG Version: 6.00 Build 0)  -->
<!DOCTYPE svg PUBLIC "-//W3C//DTD SVG 1.1//EN" "http://www.w3.org/Graphics/SVG/1.1/DTD/svg11.dtd">
<svg version="1.1" id="Layer_1" xmlns="http://www.w3.org/2000/svg" xmlns:xlink="http://www.w3.org/1999/xlink" x="0px" y="0px"
	 width="1000px" height="600px" viewBox="0 0 1000 600" enable-background="new 0 0 1000 600" xml:space="preserve">
<path fill-rule="evenodd" clip-rule="evenodd" fill="#4D4D4D" d="M614.53,212.935c-0.003,52.863,0.023,105.725-0.016,158.586
	c-0.013,16.994-10.797,32.184-26.338,36.871c-3.505,1.059-7.334,1.451-11.016,1.457c-53,0.09-106.002-0.227-158.999,0.205
	c-20.64,0.166-36.589-17.174-37.591-36.625c-0.057-1.104-0.028-2.213-0.028-3.318c0-105.448-0.002-210.895,0-316.342
	c0-1.245-0.074-2.501,0.061-3.733c0.51-4.634,3.336-7.614,7.2-7.697c3.963-0.084,6.989,3.077,7.444,7.882
	c0.129,1.372,0.048,2.765,0.048,4.148c0.003,89.257,0.001,178.513,0.004,267.77c0,1.658-0.064,3.328,0.075,4.979
	c0.483,5.715,3.397,8.436,9.042,8.436c61.995,0.008,123.991,0.008,185.985,0.002c5.953,0,8.858-2.684,9.305-8.602
	c0.126-1.652,0.063-3.32,0.063-4.98c0.002-89.394-0.003-178.79,0.031-268.184c0.002-2.185,0.246-4.417,0.743-6.542
	c0.774-3.293,3.435-4.772,6.473-4.812c3.225-0.042,5.962,1.473,6.778,4.953c0.468,1.992,0.702,4.084,0.704,6.132
	C614.537,106.659,614.53,159.798,614.53,212.935z M497.854,352.488c-11.354-0.225-21.224,8.051-21.8,21.309
	c-0.491,11.309,9.552,21.162,20.956,21.344c11.972,0.188,22.252-9.264,21.983-21.123
	C518.701,361.125,509.208,352.605,497.854,352.488z"/>
<path fill-rule="evenodd" clip-rule="evenodd" fill="#4D4D4E" d="M104.236,554.961c0-2.518,0-4.551,0-6.998
	c4.832,0.252,9.463,0.514,14.097,0.725c1.381,0.066,2.772,0.066,4.151-0.023c7.492-0.494,9.064-2.188,9.078-9.695
	c0.004-2.189,0-4.383,0-6.813c-4.007,0.977-7.542,2.154-11.168,2.666c-13.351,1.887-20.245-3.449-21.664-14.494
	c-0.872-6.783-1.21-13.881-0.223-20.609c2.259-15.42,13.679-21.115,29.022-15.234c1.665,0.639,3.275,1.42,4.879,2.121
	c2.688-3.658,2.688-3.658,9.642-3.23c0.08,1.377,0.237,2.826,0.238,4.275c0.017,17.715,0.036,35.43,0.001,53.146
	c-0.021,10.531-3.692,14.508-14.144,16.334C119.993,558.557,112.263,556.867,104.236,554.961z M131.562,509.186
	c0-1.105,0-2.205,0-3.309c0-12.006-1.155-13.119-13.428-12.924c-4.866,0.076-7.777,2.023-8.258,6.84
	c-0.583,5.848-0.639,11.805-0.242,17.672c0.317,4.697,3.292,7.092,8.058,7.15c3.687,0.045,7.417-0.271,11.05-0.891
	c1.075-0.182,2.59-1.869,2.685-2.973C131.76,516.922,131.556,513.043,131.562,509.186z"/>
<path fill-rule="evenodd" clip-rule="evenodd" fill="#4D4D4E" d="M292,533.631c-4.14,0-7.557,0.189-10.929-0.119
	c-0.997-0.09-2.18-1.418-2.743-2.469c-3.263-6.082-6.573-12.158-9.438-18.436c-1.449-3.174-3.379-4.279-6.683-3.92
	c-2.175,0.234-4.396,0.043-7.129,0.043c0,8.283,0,16.344,0,24.652c-3.777,0-7.027,0-10.642,0c0-22.396,0-44.805,0-66.807
	c10.736,0,21.333-0.34,31.889,0.152c4.871,0.225,8.779,3.406,10.803,8.045c3.105,7.113,3.894,14.682,0.665,21.734
	c-1.813,3.961-5.708,6.967-9.301,11.145C282.454,515.273,287.066,524.143,292,533.631z M255.101,498.109
	c5.428,0,10.452,0.502,15.298-0.211c2.428-0.355,5.824-2.516,6.492-4.594c1.15-3.588,1.146-7.879,0.371-11.613
	c-0.414-1.996-3.303-4.656-5.335-4.908c-5.505-0.682-11.152-0.234-16.825-0.234C255.101,483.848,255.101,490.703,255.101,498.109z"
	/>
<path fill-rule="evenodd" clip-rule="evenodd" fill="#4D4D4E" d="M398.543,556.662c-3.362,0-6.619,0-10.351,0
	c0-8.1,0-16.182,0-24.654c-4.332,1.088-8.084,2.389-11.942,2.93c-10.981,1.529-17.899-2.654-20.277-12.797
	c-2.109-8.996-2.166-18.129-0.003-27.107c2.764-11.479,11.146-15.848,23.225-12.332c3.417,0.994,6.689,2.49,10.042,3.768
	c2.816-3.58,2.816-3.58,9.306-3.031C398.543,507.746,398.543,532.086,398.543,556.662z M388.054,508.471c0-1.379,0-2.758,0-4.135
	c0-12.35-1.484-13.734-13.965-13.035c-0.137,0.006-0.275,0-0.413,0.01c-3.378,0.262-6.339,1.902-6.524,5.227
	c-0.426,7.625-0.38,15.303,0.034,22.928c0.171,3.152,2.965,4.996,6.153,5.117c3.563,0.135,7.141-0.232,10.713-0.309
	c3.427-0.068,4.316-1.852,4.066-5.055C387.838,515.656,388.054,512.055,388.054,508.471z"/>
<path fill-rule="evenodd" clip-rule="evenodd" fill="#F7941E" d="M754.021,556.426c-3.759,0-6.85,0-10.221,0
	c0-24.258,0-48.26,0-72.492c3.522-0.871,7.003-1.867,8.67,2.678c5.384-1.559,10.451-3.307,15.65-4.467
	c8.354-1.863,14.715,1.611,17.107,9.754c3.136,10.68,3.188,21.619,0.048,32.309c-2.479,8.428-9.898,12.344-19.018,10.621
	c-3.887-0.734-7.696-1.879-12.237-3.012C754.021,540.125,754.021,548.156,754.021,556.426z M753.892,508.283
	c0,3.871,0.095,7.746-0.034,11.613c-0.088,2.588,0.487,4.299,3.5,4.398c3.162,0.102,6.317,0.563,9.476,0.576
	c5.545,0.025,8.514-2.186,8.951-7.623c0.495-6.158,0.482-12.412,0.042-18.576c-0.382-5.373-3.416-7.684-8.962-7.539
	c-3.149,0.082-6.29,0.637-9.419,1.084c-2.513,0.355-3.786,1.629-3.613,4.455C754.07,500.529,753.893,504.414,753.892,508.283z"/>
<path fill-rule="evenodd" clip-rule="evenodd" fill="#F7941E" d="M638.889,499.693c0-9.824,0.083-19.652-0.051-29.475
	c-0.042-3.027,0.519-4.438,4.063-4.357c10.787,0.244,21.591,0.266,32.377,0.004c4.363-0.107,3.772,2.516,3.726,5.117
	c-0.043,2.502,0.854,5.385-3.608,5.223c-7.464-0.268-14.946,0.045-22.414-0.127c-2.936-0.066-3.914,0.955-3.768,3.818
	c0.192,3.729,0.138,7.475,0.022,11.207c-0.07,2.35,0.887,3.148,3.183,3.109c5.948-0.1,11.903,0.09,17.848-0.082
	c2.806-0.08,4.223,0.676,3.853,3.695c-0.133,1.092-0.114,2.221-0.006,3.316c0.263,2.621-0.994,3.314-3.431,3.264
	c-5.949-0.123-11.904,0.068-17.851-0.084c-2.677-0.068-3.734,0.803-3.612,3.541c0.169,3.869,0.184,7.756-0.008,11.621
	c-0.139,2.867,0.835,3.887,3.771,3.82c7.469-0.172,14.954,0.188,22.412-0.146c4.438-0.201,4.063,2.365,4.105,5.238
	c0.045,3.002,0.072,5.252-4.218,5.135c-10.786-0.299-21.589-0.254-32.376-0.01c-3.541,0.078-4.109-1.322-4.068-4.354
	C638.973,519.344,638.889,509.518,638.889,499.693z"/>
<path fill-rule="evenodd" clip-rule="evenodd" fill="#4D4D4E" d="M16.254,524.668c5.746,0.27,11.25,0.555,16.755,0.76
	c1.514,0.057,3.056,0.008,4.55-0.221c8.676-1.328,10.053-3.535,9.064-13.246c-0.34-3.346-2.852-4.857-5.849-5.668
	c-5.053-1.369-10.118-2.693-15.158-4.107c-5.645-1.584-8.955-5.363-9.747-11.125c-0.45-3.271-0.791-6.627-0.572-9.904
	c0.679-10.279,7.182-16.383,18.935-16.867c5.843-0.238,11.785,0.982,17.623,1.914c2.966,0.473,3.078,1.441,2.205,8.457
	c-2.079-0.113-4.21-0.334-6.343-0.322c-5.229,0.027-10.467,0.023-15.688,0.297c-4.275,0.227-5.811,3.162-6.089,7.039
	c-0.357,4.949,0.954,7.457,5.066,8.791c4.848,1.572,9.79,2.848,14.665,4.336c8.614,2.629,11.412,6.184,11.802,15.236
	c0.155,3.586,0.172,7.209-0.146,10.779c-0.681,7.65-4.409,11.918-11.879,13.441c-8.799,1.795-17.609,1.326-26.307-0.795
	C15.51,532.578,15.329,531.813,16.254,524.668z"/>
<path fill-rule="evenodd" clip-rule="evenodd" fill="#4D4D4E" d="M514.551,512.891c-10.874,0-21.084,0-31.246,0
	c-1.002,7.764,2.646,12.248,10.096,12.592c3.176,0.148,6.373,0.145,9.546-0.02c3.006-0.156,5.995-0.611,8.938-0.93
	c1.875,6.662,1.337,8.105-4.894,9.023c-5.795,0.857-11.765,1.324-17.594,0.961c-9.21-0.572-14.703-6.418-16.355-15.07
	c-1.15-6.025-1.576-12.465-0.801-18.523c1.961-15.336,12.889-20.609,26.88-19.061c9.871,1.094,14.129,5.648,15.324,15.551
	C515.047,502.404,514.551,507.523,514.551,512.891z M504.921,504.512c0.028-4.82,1.096-9.908-3.628-12.605
	c-4.494-2.566-9.701-2.473-14.222,0.25c-4.535,2.729-4.327,7.508-4.346,12.355C490.16,504.512,497.277,504.512,504.921,504.512z"/>
<path fill-rule="evenodd" clip-rule="evenodd" fill="#4D4D4E" d="M344.315,512.891c-10.876,0-21.085,0-31.247,0
	c-0.999,7.764,2.647,12.328,10.099,12.576c6.18,0.205,12.372,0.041,18.758,0.041c1.598,5.689,1.062,7.131-5.17,8.049
	c-5.794,0.857-11.764,1.324-17.594,0.961c-9.209-0.572-14.702-6.418-16.354-15.072c-1.15-6.023-1.575-12.463-0.8-18.523
	c1.96-15.334,12.891-20.609,26.88-19.059c9.871,1.096,14.128,5.648,15.325,15.551C344.813,502.398,344.315,507.518,344.315,512.891z
	 M334.839,504.635c-0.291-5.01,1.05-10.334-4.107-12.92c-4.715-2.363-10.115-2.408-14.545,0.885
	c-3.913,2.906-3.901,7.449-3.56,12.035C320.115,504.635,327.126,504.635,334.839,504.635z"/>
<path fill-rule="evenodd" clip-rule="evenodd" fill="#F7941E" d="M877.916,524.99c1.004,6.805,0.867,7.516-5.024,8.346
	c-5.929,0.832-12.02,1.266-17.982,0.918c-8.049-0.471-13.092-5.471-15.431-12.998c-2.38-7.666-2.667-15.527-0.743-23.338
	c3.201-13.01,13.664-17.375,26.209-15.838c10.192,1.25,14.633,6.648,15.251,16.908c0.191,3.164-0.096,6.357,0.055,9.527
	c0.152,3.176-0.968,4.348-4.316,4.234c-7.458-0.252-14.933-0.08-22.397-0.078c-1.492,0-2.984,0-4.386,0
	c-1.533,7.697,2.386,12.773,10.045,12.975c4.807,0.127,9.63-0.43,14.447-0.646C874.999,524.939,876.361,524.99,877.916,524.99z
	 M870.876,504.707c0.093-4.9,1.072-9.889-3.443-12.781c-4.596-2.943-9.967-2.688-14.595,0.031c-4.704,2.762-4.637,7.67-4.157,12.75
	C856.031,504.707,863.164,504.707,870.876,504.707z"/>
<path fill-rule="evenodd" clip-rule="evenodd" fill="#4D4D4E" d="M447.664,483.311c3.798,0,6.947,0,10.402,0
	c0,16.652,0,33.176,0,50.021c-3.428,0.129-7.336,2.133-8.93-2.842c-5.329,1.521-10.402,3.299-15.621,4.391
	c-11.009,2.305-17.924-3.16-18.134-14.406c-0.229-12.273-0.052-24.555-0.052-37.063c3.62,0,6.879,0,10.765,0c0,1.461,0,2.92,0,4.377
	c0,10.1-0.04,20.199,0.021,30.297c0.028,4.807,1.721,6.602,6.507,6.555c3.846-0.039,7.692-0.5,11.525-0.893
	c2.573-0.264,3.632-1.607,3.584-4.418c-0.173-10.373-0.069-20.752-0.067-31.127C447.664,486.703,447.664,485.203,447.664,483.311z"
	/>
<path fill-rule="evenodd" clip-rule="evenodd" fill="#4D4D4E" d="M169.888,533.518c-3.977,0-7.132,0-10.605,0
	c0-16.729,0-33.355,0-49.959c6.847-0.928,6.954-0.893,9.085,2.793c5.132-1.469,10.186-3.248,15.384-4.334
	c11.36-2.373,18.105,2.975,18.283,14.492c0.188,12.154,0.042,24.316,0.042,36.803c-3.587,0-6.929,0-10.724,0
	c0-6.439,0-12.764,0-19.088c0-4.012,0-8.02,0-12.029c-0.001-10.453-0.66-11.105-11.008-10.893c-0.829,0.016-1.665,0.004-2.483,0.115
	c-7.974,1.078-7.973,1.086-7.974,9.072c0,9.4,0,18.803,0,28.203C169.887,530.18,169.888,531.666,169.888,533.518z"/>
<path fill-rule="evenodd" clip-rule="evenodd" fill="#4D4D4E" d="M560.498,490.463c-5.93,0-11.415-0.037-16.903,0.023
	c-1.499,0.016-3.02,0.207-4.492,0.508c-2.673,0.547-4.444,2.41-3.838,4.98c0.466,1.973,1.95,4.594,3.618,5.209
	c3.951,1.463,8.271,1.977,12.465,2.734c8.789,1.59,11.745,5.002,11.967,14.008c0.283,11.617-2.533,14.934-13.969,16.859
	c-7.551,1.27-14.842,0.031-22.063-1.945c-2.761-0.756-2.771-1.088-2.162-6.508c7.062,0,14.033,0.094,20.997-0.041
	c3.353-0.064,6.355-0.902,6.647-5.189c0.285-4.184-0.834-5.715-5.073-6.537c-3.78-0.732-7.581-1.381-11.332-2.254
	c-8.906-2.074-11.521-5.564-11.392-14.912c0.109-8.078,4.366-13.23,12.176-15c7.066-1.604,14.008-0.756,20.891,0.922
	C562.758,484.471,559.804,488.225,560.498,490.463z"/>
<path fill-rule="evenodd" clip-rule="evenodd" fill="#F7941E" d="M891.165,526.547c7.126,0,13.86,0.096,20.591-0.033
	c4.855-0.092,6.771-1.873,7.053-5.781c0.27-3.705-1.427-5.701-4.991-6.352c-3.791-0.689-7.597-1.32-11.345-2.189
	c-8.941-2.072-11.301-5.045-11.375-13.992c-0.074-8.58,3.567-13.492,11.427-15.467c7.03-1.768,13.963-0.883,20.887,0.678
	c3.363,0.758,2.736,3.361,2.592,5.621c-0.189,2.896-2.446,1.982-4.099,1.922c-4.818-0.182-9.638-0.645-14.453-0.6
	c-3.121,0.029-6.146,0.889-6.607,4.854c-0.438,3.76,1.134,5.854,5.526,6.879c4.553,1.061,9.176,1.83,13.744,2.828
	c4.837,1.055,7.825,3.998,8.41,8.996c0.319,2.73,0.598,5.518,0.398,8.246c-0.527,7.227-4.152,10.803-11.298,12.148
	c-7.491,1.41-14.838,0.699-22.158-0.945C890.429,532.225,890.103,531.59,891.165,526.547z"/>
<path fill-rule="evenodd" clip-rule="evenodd" fill="#F7941E" d="M939.616,526.551c8.054,0,14.788,0.086,21.518-0.029
	c4.873-0.082,6.917-1.799,7.252-5.627c0.318-3.613-1.227-5.814-4.848-6.488c-3.788-0.705-7.599-1.311-11.352-2.164
	c-9.174-2.084-11.987-5.779-11.716-15.104c0.236-8.113,4.751-13.574,13.037-14.498c5.408-0.604,10.997-0.449,16.415,0.156
	c6.056,0.676,6.126,1.223,5.422,8.135c-1.653-0.076-3.35-0.178-5.049-0.227c-4.689-0.137-9.389-0.484-14.066-0.293
	c-3.035,0.125-5.684,1.445-5.894,5.16c-0.209,3.668,1.7,5.66,5.134,6.387c4.711,0.994,9.476,1.77,14.129,2.975
	c5.984,1.551,8.13,4.369,8.662,10.566c1.164,13.584-1.75,17.93-15.212,19.162c-6.688,0.613-13.665-0.953-20.37-2.266
	C941.326,532.133,940.618,528.578,939.616,526.551z"/>
<path fill-rule="evenodd" clip-rule="evenodd" fill="#F7941E" d="M733.983,533.418c-4.209,0-7.506,0.234-10.741-0.121
	c-1.219-0.133-2.564-1.424-3.378-2.535c-3.331-4.555-6.479-9.242-10.212-14.627c-1.888,2.461-3.433,4.449-4.945,6.457
	c-1.08,1.438-2.384,2.779-3.125,4.379c-3.156,6.803-8.65,7.514-15.529,5.988c5.234-7.281,10.206-14.537,15.566-21.492
	c2.112-2.74,1.876-4.596-0.029-7.221c-4.775-6.576-9.258-13.363-14.39-20.842c4.143,0,7.535-0.234,10.864,0.129
	c1.205,0.129,2.513,1.504,3.336,2.631c3.061,4.197,5.938,8.527,9.357,13.492c2.788-4.063,5.49-7.24,7.323-10.857
	c2.361-4.664,5.818-6.16,10.7-5.432c1.071,0.156,2.187,0.021,4.112,0.021c-2.225,3.314-4.091,6.125-5.988,8.912
	c-1.71,2.514-3.447,5.008-5.183,7.506c-5.51,7.932-5.5,7.924,0.128,16.02C725.76,521.445,729.625,527.094,733.983,533.418z"/>
<path fill-rule="evenodd" clip-rule="evenodd" fill="#4D4D4E" d="M591.188,491.975c0,10.381-0.04,20.043,0.023,29.703
	c0.02,3.23,1.902,4.707,5.071,4.682c2.885-0.023,5.77-0.004,8.582-0.004c1.555,6.637,1.188,7.398-5.233,8.133
	c-3.644,0.418-7.439,0.592-11.039,0.041c-5.672-0.865-8.009-3.791-8.123-9.717c-0.181-9.266-0.065-18.537-0.075-27.807
	c-0.003-1.486-0.002-2.975-0.002-4.684c-2.651-0.135-4.804-0.246-7.205-0.369c0-2.912,0-5.596,0-8.541
	c2.295-0.15,4.455-0.289,7.024-0.453c0-3.354,0-6.619,0-10.262c3.589-0.818,6.86-1.564,10.72-2.447c0,4.48,0,8.4,0,12.762
	c4.411,0,8.349,0,12.576,0c0,3.125,0,5.816,0,8.963C599.645,491.975,595.707,491.975,591.188,491.975z"/>
<path fill-rule="evenodd" clip-rule="evenodd" fill="#F7941E" d="M811.872,488.789c6.047-2.004,11.807-3.916,18.146-6.016
	c0,4.666,0,8.197,0,12.012c-4.063,0.434-8.116,0.945-12.186,1.273c-3.973,0.32-5.737,1.988-5.59,6.309
	c0.308,8.967-0.142,17.961,0.177,26.93c0.183,5.16-3.104,3.936-5.981,4.174c-3.2,0.264-4.719-0.498-4.665-4.211
	c0.201-13.672,0.039-27.35,0.127-41.021c0.012-1.912-1.182-4.922,2.613-4.814c2.992,0.088,7.169-1.525,6.854,4.156
	C811.347,487.945,811.671,488.328,811.872,488.789z"/>
<path fill-rule="evenodd" clip-rule="evenodd" fill="#4D4D4E" d="M72.061,483.412c3.584,0,6.853,0,10.358,0
	c0,16.75,0,33.27,0,50.008c-3.537,0-6.801,0-10.358,0C72.061,516.82,72.061,500.295,72.061,483.412z"/>
<g>
	<path fill-rule="evenodd" clip-rule="evenodd" fill="#F7941E" d="M562.359,220.015c9.355,1.457,18.58,2.812,27.758,4.434
		c1.016,0.179,1.836,1.824,2.591,2.899c0.261,0.373,0.048,1.078,0.048,1.631c0.001,31.13-0.063,62.259,0.086,93.387
		c0.019,3.729-1.132,4.643-4.699,4.637c-60.458-0.094-120.918-0.09-181.378-0.008c-3.327,0.004-4.535-0.811-4.525-4.377
		c0.115-44.826,0.095-89.652,0.021-134.478c-0.004-2.531,0.606-4.241,3.012-5.187c5.195-2.042,10.376-4.12,15.65-6.218
		c3.293,11.396,8.895,16.509,17.789,16.988c8.589,0.463,14.817-4.116,18.837-13.85c9.117,1.108,48.859,16.441,64.663,25.019
		c-3.29,7.174-3.739,14.44,0.872,21.404c2.911,4.399,6.654,7.669,11.831,9.205C546.759,239.013,555.765,233.859,562.359,220.015z
		 M420.048,276.729c0.086,11.545,10.126,21.536,21.432,21.325c11.503-0.212,21.402-10.241,21.33-21.608
		c-0.073-11.437-10.065-21.205-21.639-21.154C429.42,255.342,419.96,264.945,420.048,276.729z M573.372,302.418
		c-0.016-10.168-7.959-18.075-18.146-18.063c-9.99,0.013-18.175,8.275-18.086,18.258c0.083,9.592,8.487,17.945,18.072,17.965
		C565.201,320.6,573.387,312.413,573.372,302.418z M497.238,258.87c-0.009,10.175,8.096,18.309,18.113,18.174
		c9.834-0.133,17.871-8.178,18.024-18.035c0.152-9.86-8.294-18.232-18.293-18.139C505.176,240.963,497.246,248.963,497.238,258.87z
		 M459.864,218.696c-0.012,8.053,6.41,14.618,14.28,14.601c7.77-0.017,14.504-6.868,14.427-14.679
		c-0.078-7.962-6.69-14.376-14.706-14.263C465.939,204.466,459.876,210.676,459.864,218.696z M489.985,284.311
		c-8.328-0.012-14.36,5.979-14.343,14.247c0.017,7.869,6.718,14.567,14.463,14.458c7.553-0.107,14.157-6.737,14.313-14.363
		C504.581,290.624,498.24,284.321,489.985,284.311z"/>
	<path fill-rule="evenodd" clip-rule="evenodd" fill="#F7941E" d="M488.515,153.951c0.034-11.228,9.097-20.234,20.317-20.187
		c11.242,0.048,19.909,9.038,20.063,20.421c0.141,10.401-8.081,20.327-20.297,20.157C496.218,174.17,488.132,164.41,488.515,153.951
		z"/>
	<path fill-rule="evenodd" clip-rule="evenodd" fill="#F7941E" d="M488.175,122.173c0.014,9.693-7.293,16.994-17.003,16.994
		c-9.277,0-17.34-7.459-17.109-16.7c0.259-10.309,7.796-17.273,17.04-17.138C481.037,105.474,488.163,112.351,488.175,122.173z"/>
	<path fill-rule="evenodd" clip-rule="evenodd" fill="#F7941E" d="M541.567,229.667c-8.666-0.008-15.512-6.781-15.515-15.352
		c-0.001-8.278,7.352-15.65,15.563-15.598c8.43,0.052,15.489,7.196,15.474,15.657C557.07,223.138,550.438,229.674,541.567,229.667z"
		/>
	<path fill-rule="evenodd" clip-rule="evenodd" fill="#F7941E" d="M528.351,102.212c0.058-7.222,5.943-13.158,13.164-13.275
		c6.909-0.113,13.763,6.642,13.698,13.501c-0.066,7.194-6.451,13.412-13.708,13.348
		C533.983,115.721,528.291,109.846,528.351,102.212z"/>
	<path fill-rule="evenodd" clip-rule="evenodd" fill="#F7941E" d="M427.888,175.658c0.069-6.806,4.945-11.43,11.969-11.351
		c6.353,0.071,11.67,5.292,11.698,11.485c0.028,6.217-5.617,12.019-11.807,12.134C433.207,188.048,427.818,182.474,427.888,175.658z
		"/>
</g>
<path fill-rule="evenodd" clip-rule="evenodd" fill="#4D4D4E" d="M83.511,468.229c0,4.951-1.525,6.5-6.346,6.451
	c-4.621-0.049-6.371-1.883-6.316-6.619c0.054-4.744,1.797-6.479,6.492-6.469C82.026,461.602,83.513,463.201,83.511,468.229z"/>
</svg>
