<?xml version="1.0" standalone="no"?>
<!DOCTYPE svg PUBLIC "-//W3C//DTD SVG 20010904//EN"
 "http://www.w3.org/TR/2001/REC-SVG-20010904/DTD/svg10.dtd">
<svg version="1.0" xmlns="http://www.w3.org/2000/svg"
 width="700.000000pt" height="700.000000pt" viewBox="0 0 700.000000 700.000000"
 preserveAspectRatio="xMidYMid meet">
<metadata>
Created by potrace 1.11, written by Peter Selinger 2001-2013
</metadata>
<g transform="translate(0.000000,700.000000) scale(0.100000,-0.100000)"
fill="#000000" stroke="none">
<path d="M1416 6891 c-16 -10 -38 -34 -50 -53 l-21 -33 -2 -3030 c-2 -2541 0
-3041 11 -3100 47 -235 192 -423 403 -522 143 -66 54 -63 1773 -59 855 3 1573
8 1595 11 112 19 244 90 338 182 120 118 182 246 212 443 7 49 7 5985 -1 6040
-3 25 -11 56 -17 69 -31 63 -128 88 -186 47 -36 -25 -48 -50 -57 -115 -3 -27
-7 -1205 -8 -2617 -1 -2366 -2 -2571 -17 -2599 -24 -42 -48 -61 -94 -74 -28
-8 -562 -11 -1795 -11 l-1756 0 -44 22 c-32 16 -51 35 -65 63 -19 40 -20 71
-20 2630 -1 2019 -4 2598 -13 2626 -28 83 -123 123 -186 80z m2212 -5752 c98
-31 190 -106 232 -188 31 -61 52 -174 45 -240 -18 -169 -171 -318 -348 -339
-236 -29 -451 164 -442 395 7 148 89 283 212 347 82 42 215 53 301 25z"/>
<path d="M4256 6032 c-210 -67 -231 -366 -31 -458 98 -46 204 -24 285 58 117
120 74 315 -86 389 -56 26 -110 29 -168 11z"/>
<path d="M2924 5730 c-50 -16 -126 -72 -156 -115 -150 -218 -4 -500 258 -498
183 1 315 143 308 330 -6 165 -130 283 -304 290 -41 1 -89 -2 -106 -7z"/>
<path d="M3661 5208 c-137 -21 -258 -126 -299 -258 -30 -94 -16 -222 33 -307
86 -145 275 -213 445 -161 51 16 135 74 168 116 53 69 75 128 78 215 2 50 -2
99 -10 128 -55 183 -230 296 -415 267z"/>
<path d="M2359 4634 c-117 -35 -173 -189 -113 -306 38 -74 127 -124 206 -114
184 21 271 247 141 367 -63 60 -148 79 -234 53z"/>
<path d="M2060 4407 c-14 -6 -38 -16 -55 -23 -16 -7 -64 -26 -105 -43 -117
-45 -131 -53 -144 -80 -10 -21 -12 -299 -12 -1307 1 -1246 2 -1282 20 -1303
l19 -21 1722 0 c1708 0 1723 0 1748 20 l25 20 -1 907 c-1 1060 15 945 -132
969 -49 8 -106 17 -125 19 -19 3 -44 7 -55 10 -11 2 -42 7 -70 10 -27 4 -63
10 -80 14 -16 4 -47 7 -68 7 -35 -1 -41 -5 -62 -43 -82 -154 -196 -241 -329
-250 -290 -21 -502 255 -407 528 l19 56 -106 51 c-127 60 -242 112 -248 112
-2 0 -63 25 -134 55 -225 94 -585 220 -690 240 -16 3 -25 -6 -44 -43 -76 -147
-189 -217 -333 -207 -152 11 -232 84 -319 291 -8 19 -13 20 -34 11z m1101
-518 c78 -20 154 -105 175 -195 39 -168 -107 -337 -280 -322 -218 19 -322 292
-170 450 48 48 65 58 129 73 51 12 82 11 146 -6z m775 -677 c115 -35 211 -142
232 -258 5 -28 8 -58 6 -67 -1 -9 -5 -34 -8 -57 -13 -91 -91 -193 -185 -238
-48 -23 -68 -27 -146 -27 -76 0 -98 4 -139 25 -196 99 -249 355 -109 519 85
100 224 140 349 103z m-1346 -273 c137 -50 243 -173 268 -310 31 -164 -63
-339 -226 -420 -62 -31 -74 -34 -162 -34 -85 0 -102 3 -160 31 -135 64 -225
195 -234 344 -11 178 114 347 294 395 55 15 172 12 220 -6z m905 -547 c157
-81 188 -287 64 -418 -129 -134 -356 -93 -429 79 -63 147 9 309 160 358 44 15
162 4 205 -19z m1226 -3 c153 -71 227 -235 181 -402 -25 -90 -119 -185 -215
-218 -228 -77 -472 126 -435 364 19 129 92 213 238 275 46 19 169 9 231 -19z"/>
<path d="M4255 3997 c-137 -46 -217 -157 -210 -292 3 -75 22 -121 71 -175 97
-107 266 -125 382 -40 141 102 153 314 24 438 -68 66 -184 96 -267 69z"/>
</g>
</svg>
